<?xml version="1.0" encoding="UTF-8" standalone="no"?>
<svg
   xmlns:dc="http://purl.org/dc/elements/1.1/"
   xmlns:cc="http://creativecommons.org/ns#"
   xmlns:rdf="http://www.w3.org/1999/02/22-rdf-syntax-ns#"
   xmlns:svg="http://www.w3.org/2000/svg"
   xmlns="http://www.w3.org/2000/svg"
   xmlns:sodipodi="http://sodipodi.sourceforge.net/DTD/sodipodi-0.dtd"
   xmlns:inkscape="http://www.inkscape.org/namespaces/inkscape"
   version="1.1"
   id="Your_Icon"
   x="0px"
   y="0px"
   width="42.799999"
   height="34.48"
   viewBox="0 0 42.800001 34.479999"
   enable-background="new 0 0 100 100"
   xml:space="preserve"
   inkscape:version="0.48.4 r9939"
   sodipodi:docname="contact.svg"><metadata
     id="metadata9"><rdf:RDF><cc:Work
         rdf:about=""><dc:format>image/svg+xml</dc:format><dc:type
           rdf:resource="http://purl.org/dc/dcmitype/StillImage" /></cc:Work></rdf:RDF></metadata><defs
     id="defs7" /><sodipodi:namedview
     pagecolor="#ffffff"
     bordercolor="#666666"
     borderopacity="1"
     objecttolerance="10"
     gridtolerance="10"
     guidetolerance="10"
     inkscape:pageopacity="0"
     inkscape:pageshadow="2"
     inkscape:window-width="1440"
     inkscape:window-height="850"
     id="namedview5"
     showgrid="false"
     inkscape:zoom="2"
     inkscape:cx="-0.45987091"
     inkscape:cy="37.640212"
     inkscape:window-x="0"
     inkscape:window-y="25"
     inkscape:window-maximized="1"
     inkscape:current-layer="Your_Icon"
     fit-margin-top="0"
     fit-margin-left="0"
     fit-margin-right="10"
     fit-margin-bottom="0" /><g
     transform="translate(130.9,30.584243)"
     style="font-size:40px;font-style:normal;font-weight:normal;line-height:125%;letter-spacing:0px;word-spacing:0px;fill:#000000;fill-opacity:1;stroke:none;font-family:Sans"
     id="flowRoot3758"><path
       d="m -105.9,-3.9442439 c -0.85336,1.7e-6 -1.56003,-0.1199982 -2.12,-0.36 -0.56002,-0.2399977 -1.02669,-0.5599974 -1.4,-0.96 -0.58669,0.3200027 -1.29336,0.6000024 -2.12,0.84 -0.82669,0.2133353 -1.65335,0.3200019 -2.48,0.32 -1.28002,1.9e-6 -2.45335,-0.1999979 -3.52,-0.6 -1.04001,-0.3999971 -1.94668,-0.9866632 -2.72,-1.76 -0.77335,-0.799995 -1.37335,-1.7733273 -1.8,-2.92 -0.42668,-1.1466581 -0.64001,-2.4799901 -0.64,-4.0000001 -1e-5,-1.279987 0.19999,-2.479986 0.6,-3.6 0.39999,-1.146651 0.98665,-2.133316 1.76,-2.96 0.79999,-0.853315 1.75999,-1.519981 2.88,-2 1.14665,-0.47998 2.43998,-0.719979 3.88,-0.72 1.35998,2.1e-5 2.59998,0.106687 3.72,0.32 1.14664,0.213353 2.02664,0.426686 2.64,0.64 l 0,12.2400001 c -3e-5,0.8533397 0.14664,1.4533391 0.44,1.8 0.29331,0.3466718 0.67997,0.5200049 1.16,0.52 0.6933,4.9e-6 1.2933,-0.2399948 1.8,-0.72 0.5333,-0.4799939 0.95997,-1.1066599 1.28,-1.88 0.34664,-0.7733251 0.59997,-1.6399911 0.76,-2.6000001 0.15997,-0.986655 0.23997,-1.986654 0.24,-3 -3e-5,-1.679985 -0.29337,-3.253317 -0.88,-4.72 -0.5867,-1.493314 -1.4267,-2.799979 -2.52,-3.92 -1.09336,-1.119977 -2.42669,-1.999976 -4,-2.64 -1.54669,-0.639975 -3.29335,-0.959975 -5.24,-0.96 -1.94668,2.5e-5 -3.73335,0.333358 -5.36,1 -1.62668,0.640024 -3.02668,1.573356 -4.2,2.8 -1.17334,1.20002 -2.09334,2.680019 -2.76,4.44 -0.64001,1.760015 -0.96001,3.760013 -0.96,6 -1e-5,2.346676 0.34666,4.4133401 1.04,6.2000001 0.69333,1.7600032 1.65332,3.2400017 2.88,4.44 1.25332,1.1733326 2.71999,2.05333175 4.4,2.63999999 1.70665,0.61333056 3.57332,0.91999692 5.6,0.92 1.57331,-3.08e-6 2.86664,-0.0933363 3.88,-0.28 1.03998,-0.18666928 1.70664,-0.3333358 2,-0.44 l 0.4,2.96000001 c -0.45336,0.1599945 -1.28002,0.3333277 -2.48,0.52 -1.17336,0.1866606 -2.44002,0.2799939 -3.8,0.28 -2.37335,-6.1e-6 -4.61335,-0.3466724 -6.72,-1.04 -2.10668,-0.6666711 -3.94668,-1.70667 -5.52,-3.12000001 -1.57334,-1.38666719 -2.82667,-3.15999879 -3.76,-5.31999999 -0.90667,-2.1866611 -1.36,-4.7733251 -1.36,-7.7600001 0,-2.879986 0.45333,-5.399983 1.36,-7.56 0.90666,-2.159979 2.11999,-3.946644 3.64,-5.36 1.54666,-1.439974 3.31999,-2.519973 5.32,-3.24 2.02665,-0.719972 4.15998,-1.079972 6.4,-1.08 2.18665,2.8e-5 4.25331,0.360028 6.2,1.08 1.94664,0.69336 3.6533,1.720026 5.12,3.08 1.46663,1.333356 2.62663,2.960021 3.48,4.88 0.853298,1.893351 1.279965,4.040015 1.28,6.44 -3.5e-5,1.813344 -0.213369,3.413343 -0.64,4.8 -0.400034,1.3866735 -0.9467,2.5600056 -1.64,3.5200001 -0.69337,0.933337 -1.52003,1.6400029 -2.48,2.12 -0.96003,0.480002 -1.97336,0.7200017 -3.04,0.72 m -8,-3.24 c 0.55998,5e-6 1.11998,-0.053328 1.68,-0.16 0.58664,-0.1333281 1.10664,-0.3199946 1.56,-0.56 -0.08,-0.3466606 -0.13336,-0.693327 -0.16,-1.04 -0.0267,-0.3466596 -0.04,-0.6799926 -0.04,-1 l 0,-9.4000001 c -0.16002,-0.05332 -0.46669,-0.106649 -0.92,-0.16 -0.45335,-0.05332 -0.96002,-0.07998 -1.52,-0.08 -1.89335,1.7e-5 -3.30668,0.586684 -4.24,1.76 -0.93335,1.173348 -1.40001,2.653346 -1.4,4.44 -1e-5,1.893343 0.45332,3.4000079 1.36,4.5200001 0.90665,1.1200055 2.13332,1.680005 3.68,1.68"
       style="font-variant:normal;font-stretch:normal;font-family:Ubuntu;-inkscape-font-specification:Ubuntu"
       id="path3767"
       inkscape:connector-curvature="0" /></g></svg>