<?xml version="1.0" encoding="UTF-8" standalone="no"?>
<svg
   xmlns:dc="http://purl.org/dc/elements/1.1/"
   xmlns:cc="http://creativecommons.org/ns#"
   xmlns:rdf="http://www.w3.org/1999/02/22-rdf-syntax-ns#"
   xmlns:svg="http://www.w3.org/2000/svg"
   xmlns="http://www.w3.org/2000/svg"
   xmlns:sodipodi="http://sodipodi.sourceforge.net/DTD/sodipodi-0.dtd"
   xmlns:inkscape="http://www.inkscape.org/namespaces/inkscape"
   version="1.1"
   id="Layer_1"
   x="0px"
   y="0px"
   width="15.92"
   height="15.74341"
   viewBox="0 0 126.0864 124.68781"
   enable-background="new 0 0 612 792"
   xml:space="preserve"
   inkscape:version="0.48.2 r9819"
   sodipodi:docname="wrench.svg"><metadata
   id="metadata15"><rdf:RDF><cc:Work
       rdf:about=""><dc:format>image/svg+xml</dc:format><dc:type
         rdf:resource="http://purl.org/dc/dcmitype/StillImage" /><dc:title></dc:title></cc:Work></rdf:RDF></metadata><defs
   id="defs13" /><sodipodi:namedview
   pagecolor="#ffffff"
   bordercolor="#666666"
   borderopacity="1"
   objecttolerance="10"
   gridtolerance="10"
   guidetolerance="10"
   inkscape:pageopacity="0"
   inkscape:pageshadow="2"
   inkscape:window-width="715"
   inkscape:window-height="480"
   id="namedview11"
   showgrid="false"
   inkscape:zoom="2.36"
   inkscape:cx="110.11675"
   inkscape:cy="-31.379591"
   inkscape:window-x="186"
   inkscape:window-y="86"
   inkscape:window-maximized="0"
   inkscape:current-layer="Layer_1"
   fit-margin-top="0"
   fit-margin-left="0"
   fit-margin-right="0"
   fit-margin-bottom="0" />
<path
   d="m 122.40841,102.76332 c 5,5 4.8,13 -0.2,18.199 -5.2,5 -13.199,5 -18.199,-0.199 l -62.999,-64.599998 c -5.4,-5.2 -8.601,-6.8 -13,-5.4 -4.4,1.6 -10.6,1.6 -16.399,-2.2 -12.39999993,-8 -11.60099993,-23 -11.60099993,-23 l 1.00000003,-1.6 c 0,0 11.1999999,7.2 12.5999999,8 1.801,1.4 8,4.2 13.601,-4.4 5.8,-8.6 1,-14 -0.601,-15 -1.399,-0.8 -12.6,-8.2000002 -12.6,-8.2000002 l 1,-1.6 c 0,0 13,-6.6 25.199,0.6 0,0.4 3,2.2 4.2,3.2 7.8,7.0000002 7.8,14.8000002 6.4,21.2000002 -1.2,5.8 0,7.8 4.6,12.8 l 66.999,62.199998 z m -4.599,4.199 c -2.601,-2.6 -6.8,-2.6 -9.601,0 -2.399,2.6 -2.399,7 0,9.4 2.801,2.6 7,3 9.601,0.2 2.599,-2.399 2.599,-7 0,-9.6 z"
   id="path3"
   inkscape:connector-curvature="0"
   style="fill:#000000" />

</svg>